<svg width="20" height="20" viewBox="0 0 20 20" fill="none" xmlns="http://www.w3.org/2000/svg">
<g clip-path="url(#clip0_2492_19154)">
<path fill-rule="evenodd" clip-rule="evenodd" d="M9.99992 0.833008C10.4602 0.833008 10.8333 1.2061 10.8333 1.66634V9.16634H18.3333C18.7935 9.16634 19.1666 9.53944 19.1666 9.99967C19.1666 10.4599 18.7935 10.833 18.3333 10.833H10.8333V18.333C10.8333 18.7932 10.4602 19.1663 9.99992 19.1663C9.53968 19.1663 9.16658 18.7932 9.16658 18.333V10.833H1.66659C1.20635 10.833 0.833252 10.4599 0.833252 9.99967C0.833252 9.53944 1.20635 9.16634 1.66659 9.16634H9.16658V1.66634C9.16658 1.2061 9.53968 0.833008 9.99992 0.833008Z" fill="#FF3F3A"/>
</g>
<defs>
<clipPath id="clip0_2492_19154">
<rect width="20" height="20" fill="white"/>
</clipPath>
</defs>
</svg>
